<svg width="28" height="28" viewBox="0 0 28 28" fill="none" xmlns="http://www.w3.org/2000/svg">
<path d="M3.1094 0.335899C2.19034 -0.276806 0.948604 -0.0284578 0.335899 0.8906C-0.276806 1.80966 -0.0284578 3.0514 0.8906 3.6641L3.1094 0.335899ZM14 10L12.8906 11.6641C13.5624 12.112 14.4376 12.112 15.1094 11.6641L14 10ZM27.1094 3.6641C28.0285 3.0514 28.2768 1.80966 27.6641 0.8906C27.0514 -0.0284578 25.8097 -0.276806 24.8906 0.335899L27.1094 3.6641ZM3.1094 16.3359C2.19034 15.7232 0.948604 15.9715 0.335899 16.8906C-0.276806 17.8097 -0.0284578 19.0514 0.8906 19.6641L3.1094 16.3359ZM14 26L12.8906 27.6641C13.5624 28.112 14.4376 28.112 15.1094 27.6641L14 26ZM27.1094 19.6641C28.0285 19.0514 28.2768 17.8097 27.6641 16.8906C27.0514 15.9715 25.8097 15.7232 24.8906 16.3359L27.1094 19.6641ZM0.8906 3.6641L12.8906 11.6641L15.1094 8.3359L3.1094 0.335899L0.8906 3.6641ZM15.1094 11.6641L27.1094 3.6641L24.8906 0.335899L12.8906 8.3359L15.1094 11.6641ZM0.8906 19.6641L12.8906 27.6641L15.1094 24.3359L3.1094 16.3359L0.8906 19.6641ZM15.1094 27.6641L27.1094 19.6641L24.8906 16.3359L12.8906 24.3359L15.1094 27.6641Z" fill="#B3B3B3"/>
</svg>
